<svg id="ab9db8f8-3f5c-405c-9c8d-27eb3259b9f4" data-name="Layer 1" xmlns="http://www.w3.org/2000/svg" viewBox="0 0 768 320"><title>GFA_logo</title><path d="M429.17,98.88a27.38,27.38,0,0,1,18.58,6.64c5.09,4.41,7.64,9.8,7.64,16.13s-2.55,11.58-7.64,16a27.37,27.37,0,0,1-18.58,6.63H331.29a27.39,27.39,0,0,1-18.59-6.63q-7.62-6.62-7.63-16a20.62,20.62,0,0,1,7.63-16.13,27.4,27.4,0,0,1,18.59-6.64Z" fill="#bcd631"/><path d="M58.4,317.74a4.87,4.87,0,0,1-4.9-4.9V276.18a4.93,4.93,0,0,1,4.9-4.91H89a4.77,4.77,0,0,1,3.48,1.46,4.89,4.89,0,0,1,0,6.89A4.79,4.79,0,0,1,89,281.06H63.28v8.56H82.84a4.8,4.8,0,0,1,3.47,1.43,4.9,4.9,0,0,1,0,6.92,4.8,4.8,0,0,1-3.47,1.43H63.28v13.44a4.87,4.87,0,0,1-4.88,4.9Z" fill="#231f20"/><path d="M106.08,317.74a4.87,4.87,0,0,1-4.9-4.9V276.18a4.93,4.93,0,0,1,4.9-4.91,4.66,4.66,0,0,1,3.45,1.46,4.72,4.72,0,0,1,1.43,3.45v36.66a4.75,4.75,0,0,1-1.43,3.48A4.69,4.69,0,0,1,106.08,317.74Z" fill="#231f20"/><path d="M122,281.06a4.9,4.9,0,0,1,0-9.79h30.55a5,5,0,0,1,4.91,4.91,4.65,4.65,0,0,1-1.44,3.44,4.75,4.75,0,0,1-3.47,1.44h-10.4v31.78a4.87,4.87,0,0,1-4.87,4.9,4.87,4.87,0,0,1-4.91-4.9V281.06Z" fill="#231f20"/><path d="M166.77,271.59a4.73,4.73,0,0,1,2.95-.13A4.86,4.86,0,0,1,172.2,273l21.91,26.3V276.18a4.72,4.72,0,0,1,1.43-3.45,4.67,4.67,0,0,1,3.45-1.46,4.73,4.73,0,0,1,3.47,1.46,4.68,4.68,0,0,1,1.43,3.45v36.66a4.69,4.69,0,0,1-.9,2.82,4.63,4.63,0,0,1-2.33,1.8,4.92,4.92,0,0,1-1.67.28,4.65,4.65,0,0,1-3.75-1.76l-21.92-26.3v23.16a4.75,4.75,0,0,1-1.43,3.48,4.93,4.93,0,0,1-6.92,0,4.75,4.75,0,0,1-1.43-3.48V276.18a4.78,4.78,0,0,1,.9-2.82A4.73,4.73,0,0,1,166.77,271.59Z" fill="#231f20"/><path d="M218.58,317.74a4.87,4.87,0,0,1-4.91-4.9V276.18a4.93,4.93,0,0,1,4.91-4.91h30.54a4.92,4.92,0,0,1,4.9,4.91,4.67,4.67,0,0,1-1.42,3.44,4.77,4.77,0,0,1-3.48,1.44H223.45v8.56H243a4.8,4.8,0,0,1,3.47,1.43,4.9,4.9,0,0,1,0,6.92A4.8,4.8,0,0,1,243,299.4H223.45V308h25.67a4.8,4.8,0,0,1,3.48,1.43,4.67,4.67,0,0,1,1.42,3.44,4.75,4.75,0,0,1-1.42,3.48,4.79,4.79,0,0,1-3.48,1.42Z" fill="#231f20"/><path d="M285.19,308a4.29,4.29,0,0,0,0-8.57H273a14.07,14.07,0,0,1,0-28.13h21.39a4.79,4.79,0,0,1,3.48,1.46,4.89,4.89,0,0,1,0,6.89,4.81,4.81,0,0,1-3.48,1.44H273a4.34,4.34,0,0,0-4.28,4.28,4.14,4.14,0,0,0,1.27,3,4.09,4.09,0,0,0,3,1.24h12.23a14.06,14.06,0,0,1,0,28.12H263.81a4.87,4.87,0,0,1-4.91-4.9,4.64,4.64,0,0,1,1.43-3.44,4.74,4.74,0,0,1,3.48-1.43Z" fill="#231f20"/><path d="M330.42,308a4.3,4.3,0,0,0,4.28-4.29,4,4,0,0,0-1.27-3,4.1,4.1,0,0,0-3-1.27H318.18a14.07,14.07,0,0,1,0-28.13h21.39a4.92,4.92,0,0,1,4.9,4.91,4.67,4.67,0,0,1-1.42,3.44,4.77,4.77,0,0,1-3.48,1.44H318.18a4.34,4.34,0,0,0-4.28,4.28,4.18,4.18,0,0,0,1.27,3,4.12,4.12,0,0,0,3,1.24h12.24a14.06,14.06,0,0,1,0,28.12H309a4.85,4.85,0,0,1-4.9-4.9,4.67,4.67,0,0,1,1.42-3.44A4.74,4.74,0,0,1,309,308Z" fill="#231f20"/><path d="M377.7,317.22a4.56,4.56,0,0,1-2.45-2.83,4.68,4.68,0,0,1,.23-3.72L393.83,274a5,5,0,0,1,1.81-2,4.87,4.87,0,0,1,6.95,2l18.31,36.69a4.56,4.56,0,0,1,.28,3.72,4.9,4.9,0,0,1-4.63,3.35,4.85,4.85,0,0,1-4.37-2.72l-3.26-6.47H387.47L384.24,315a4.92,4.92,0,0,1-6.54,2.2Zm14.68-18.44h11.67l-5.84-11.67Z" fill="#231f20"/><path d="M448.33,317.74a23.24,23.24,0,1,1,16.43-39.64,4.9,4.9,0,0,1,0,6.9,4.85,4.85,0,0,1-6.92,0,13.46,13.46,0,1,0,0,19,4.9,4.9,0,0,1,6.92,6.93A22.37,22.37,0,0,1,448.33,317.74Z" fill="#231f20"/><path d="M471.84,317.22a4.56,4.56,0,0,1-2.45-2.83,4.68,4.68,0,0,1,.24-3.72L488,274a4.91,4.91,0,0,1,6.95-2,5,5,0,0,1,1.81,2L515,310.67a4.52,4.52,0,0,1,.28,3.72,4.88,4.88,0,0,1-4.62,3.35,4.81,4.81,0,0,1-2.55-.71,4.71,4.71,0,0,1-1.82-2l-3.26-6.47H481.62L478.39,315a4.93,4.93,0,0,1-6.55,2.2Zm14.68-18.44h11.67l-5.83-11.67Z" fill="#231f20"/><path d="M526.6,317.74a4.85,4.85,0,0,1-4.9-4.9V276.18a4.92,4.92,0,0,1,4.9-4.91h12.2a23.24,23.24,0,1,1,0,46.47Zm4.87-9.77h7.33a13.46,13.46,0,0,0,0-26.91h-7.33Z" fill="#231f20"/><path d="M574.26,317.74a4.85,4.85,0,0,1-4.89-4.9V276.18a4.92,4.92,0,0,1,4.89-4.91h30.55a4.77,4.77,0,0,1,3.48,1.46,4.86,4.86,0,0,1,0,6.89,4.79,4.79,0,0,1-3.48,1.44H579.14v8.56H598.7a4.78,4.78,0,0,1,3.47,1.43,4.9,4.9,0,0,1,0,6.92,4.78,4.78,0,0,1-3.47,1.43H579.14V308h25.67a4.82,4.82,0,0,1,3.48,1.43,4.68,4.68,0,0,1,1.43,3.44,4.75,4.75,0,0,1-1.43,3.48,4.81,4.81,0,0,1-3.48,1.42Z" fill="#231f20"/><path d="M640.26,287.61l14.9-14.88a4.94,4.94,0,0,1,2.49-1.36,4.92,4.92,0,0,1,5.86,4.81v36.66a4.9,4.9,0,0,1-8.35,3.48,4.75,4.75,0,0,1-1.43-3.48V288l-10,10a4.77,4.77,0,0,1-3.48,1.43,4.67,4.67,0,0,1-3.44-1.43l-10-10v24.87a4.9,4.9,0,0,1-8.35,3.48,4.71,4.71,0,0,1-1.42-3.48V276.18a4.7,4.7,0,0,1,.83-2.73,4.84,4.84,0,0,1,5-2.08,5,5,0,0,1,2.51,1.36Z" fill="#231f20"/><path d="M707.62,272a4.8,4.8,0,0,1,2.18,3,4.68,4.68,0,0,1-.62,3.7L694.65,302v10.8a4.87,4.87,0,0,1-4.9,4.9,4.69,4.69,0,0,1-3.45-1.42,4.75,4.75,0,0,1-1.43-3.48V302l-14.56-23.28a4.91,4.91,0,0,1,1.55-6.74,4.88,4.88,0,0,1,3.7-.62,4.74,4.74,0,0,1,3,2.17l11.15,17.82,11.13-17.82a4.76,4.76,0,0,1,3-2.17A4.82,4.82,0,0,1,707.62,272Z" fill="#231f20"/><path d="M169.1,162.62h53.18A66.42,66.42,0,1,1,169.1,56.46H271.74A120.74,120.74,0,0,1,284.13,81H163.07a41,41,0,0,0,6,81.65Z" fill="#bcd631"/><path d="M291.57,122.88a122.36,122.36,0,0,1-.9,14.79A121.17,121.17,0,1,1,246.22,28.38h-74.7a93.28,93.28,0,1,0,91.8,109.29H167.49a16.1,16.1,0,1,1,0-32.2H290.3A119,119,0,0,1,291.57,122.88Z" fill="#231f20"/><path d="M466.31,126.34q0-51,36-87,36.18-36.2,87-36.19,51,0,87,36.19,36.2,36,36.19,87,0,50.83-36.19,87-36,36-87,36-50.82,0-87-36Q466.32,177.18,466.31,126.34Zm214.29,0q0-37.64-26.7-64.33Q627,35.1,589.35,35.11T525,62q-26.7,26.7-26.7,64.33T525,190.71q26.7,26.7,64.33,26.7t64.55-26.7Q680.6,164,680.6,126.36Z" fill="#231f20"/><path d="M518.35,126.3q0-29.43,20.8-50.25t50.26-20.9q29.45,0,50.26,20.9t20.89,50.25q0,29.37-20.89,50.26t-50.26,20.8q-29.35,0-50.26-20.8T518.35,126.3Zm121.32,0A50.43,50.43,0,0,0,589.4,76,48.07,48.07,0,0,0,554,90.87a48.3,48.3,0,0,0-14.71,35.44,50.21,50.21,0,0,0,100.42,0Z" fill="#bcd631"/><circle cx="589.45" cy="126.26" r="24.79" fill="#231f20"/></svg>